{"title":"Green-Hornet-3D-Half-SBS-Raster[THD]","uid":6358948,"size":14200695890,"categoryP":"video","categoryS":"movies","magnet":"?xt=urn:btih:d2aa6f7a7905502c35cbdd152f7478c5ac8a4e2a&amp;dn=Green-Hornet-3D-Half-SBS-Raster%5BTHD%5D&amp;tr=udp%3A%2F%2Ftracker.openbittorrent.com%3A80&amp;tr=udp%3A%2F%2Fopen.demonii.com%3A1337&amp;tr=udp%3A%2F%2Ftracker.coppersurfer.tk%3A6969&amp;tr=udp%3A%2F%2Fexodus.desync.com%3A6969","seeders":0,"leechers":0,"uploader":"raster","files":1,"time":1304259173,"description":"Video\nID : 1\nFormat : AVC\nFormat/Info : Advanced Video Codec\nFormat profile : &lt;a class=&quot;__cf_email__&quot; href=&quot;/cdn-cgi/l/email-protection&quot; data-cfemail=&quot;3870515f5078740c1609&quot;&gt;[email&amp;#160;protected]&lt;/a&gt;&lt;script cf-hash='f9e31' type=&quot;text/javascript&quot;&gt;\n/* &lt;![CDATA[ */!function(){try{var t=&quot;currentScript&quot;in document?document.currentScript:function(){for(var t=document.getElementsByTagName(&quot;script&quot;),e=t.length;e--;)if(t[e].getAttribute(&quot;cf-hash&quot;))return t[e]}();if(t&amp;&amp;t.previousSibling){var e,r,n,i,c=t.previousSibling,a=c.getAttribute(&quot;data-cfemail&quot;);if(a){for(e=&quot;&quot;,r=parseInt(a.substr(0,2),16),n=2;a.length-n;n+=2)i=parseInt(a.substr(n,2),16)^r,e+=String.fromCharCode(i);e=document.createTextNode(e),c.parentNode.replaceChild(e,c)}}}catch(u){}}();/* ]]&gt; */&lt;/script&gt;\nCodec ID : V_MPEG4/ISO/AVC\nDuration : 1h 58mn\nBit rate mode : Variable\nBit rate : 12.5 Mbps\nMaximum bit rate : 18.1 Mbps\nWidth : 1 920 pixels\nHeight : 1 080 pixels\nDisplay aspect ratio : 16:9\nFrame rate : 23.976 fps\nColor space : YUV\nBit depth : 8 bits\nScan type : Progressive\nBits/(Pixel*Frame) : 0.252\nStream size : 10.4 GiB (79%)\nLanguage : English\n\nAudio #1\nID : 2\nFormat : DTS\nFormat/Info : Digital Theater Systems\nCodec ID : A_DTS\nDuration : 1h 58mn\nBit rate mode : Constant\nBit rate : 1 510 Kbps\nChannel(s) : 6 channels\nChannel positions : Front: L C R, Side: L R, LFE\nSampling rate : 48.0 KHz\nBit depth : 16 bits\nCompression mode : Lossy\nStream size : 1.25 GiB (9%)\nLanguage : English\n\nAudio #2\nID : 3\nFormat : DTS\nFormat/Info : Digital Theater Systems\nFormat profile : MA / Core\nCodec ID : A_DTS\nDuration : 1h 58mn\nBit rate mode : Variable\nBit rate : 1 561 Kbps / 1 510 Kbps\nChannel(s) : 6 channels\nChannel positions : Front: L C R, Side: L R, LFE\nSampling rate : 48.0 KHz\nBit depth : 16 bits\nCompression mode : Lossless / Lossy\nLanguage : French","torrent":{"xt":"urn:btih:d2aa6f7a7905502c35cbdd152f7478c5ac8a4e2a","amp;dn":"Green-Hornet-3D-Half-SBS-Raster%5BTHD%5D","amp;tr":["udp%3A%2F%2Ftracker.openbittorrent.com%3A80","udp%3A%2F%2Fopen.demonii.com%3A1337","udp%3A%2F%2Ftracker.coppersurfer.tk%3A6969","udp%3A%2F%2Fexodus.desync.com%3A6969"],"infoHash":"d2aa6f7a7905502c35cbdd152f7478c5ac8a4e2a","infoHashBuffer":{"type":"Buffer","data":[210,170,111,122,121,5,80,44,53,203,221,21,47,116,120,197,172,138,78,42]},"announce":[],"urlList":[]}}